# xmcd
#
# Track frame offsets:
# 150
# 15800
# 33293
# 49292
#
# Disc length: 791 seconds
#
#
# Revision: 0
# Processed by: cddbd v1.4PL0 Copyright (c) Steve Scherf et al.
# Submitted via: FreeRIP 2.12 
#
DISCID=22031504
DTITLE=WB-band - 4:20
DYEAR=2003
DGENRE=Blues
TTITLE0=Good Vibrations
TTITLE1=Kukko groove
TTITLE2=Night´n day
TTITLE3=Chocolate cake
EXTD=
EXTT0=
EXTT1=
EXTT2=
EXTT3=
PLAYORDER=
